<?xml version="1.0" encoding="utf-8"?>
<!-- Generator: Adobe Illustrator 16.0.4, SVG Export Plug-In . SVG Version: 6.00 Build 0)  -->
<!DOCTYPE svg PUBLIC "-//W3C//DTD SVG 1.1//EN" "http://www.w3.org/Graphics/SVG/1.1/DTD/svg11.dtd">
<svg version="1.1" id="Layer_1" xmlns="http://www.w3.org/2000/svg" xmlns:xlink="http://www.w3.org/1999/xlink" x="0px" y="0px"
	 width="612px" height="792px" viewBox="0 0 612 792" enable-background="new 0 0 612 792" xml:space="preserve">
<path fill="#058BB9" d="M84.343,40.386c-1.648,0-2.946-1.361-2.946-2.948c0-1.588,1.298-2.911,2.946-2.911
	c1.578,0,2.911,1.323,2.911,2.911S85.921,40.386,84.343,40.386z M69.385,40.171c-5.647,0-8.803-3.713-8.803-8.722V17.158
	c0-1.331,1.087-2.312,2.49-2.312c1.298,0,2.42,1.051,2.42,2.312v14.291c0,2.522,1.228,4.273,3.893,4.273
	c2.631,0,3.858-1.787,3.858-4.273V17.158c0-1.226,1.052-2.312,2.42-2.312c1.438,0,2.525,1.086,2.525,2.312v14.291
	C78.188,36.493,74.926,40.171,69.385,40.171z M55.671,40.171c-0.807,0-1.508-0.315-2.034-1.016l-6.804-9.107l-0.631,0.701v7.145
	c0,1.226-1.122,2.277-2.455,2.277c-1.368,0-2.455-1.051-2.455-2.277V17.088c0-1.191,1.087-2.242,2.455-2.242
	c1.333,0,2.455,1.051,2.455,2.242v6.655l6.945-7.881c0.421-0.526,1.227-1.016,1.999-1.016c1.052,0,2.42,1.016,2.42,2.242
	c0,0.526-0.035,0.876-0.596,1.506l-6.98,7.881l7.681,10.158c0.351,0.455,0.386,0.84,0.386,1.191
	C58.057,38.84,57.18,40.171,55.671,40.171L55.671,40.171z M28.349,40.171c-5.647,0-8.803-3.713-8.803-8.722V17.158
	c0-1.331,1.087-2.312,2.49-2.312c1.298,0,2.42,1.051,2.42,2.312v14.291c0,2.522,1.228,4.273,3.893,4.273
	c2.63,0,3.858-1.787,3.858-4.273V17.158c0-1.226,1.052-2.312,2.42-2.312c1.438,0,2.525,1.086,2.525,2.312v14.291
	C37.152,36.493,33.89,40.171,28.349,40.171z M14.635,40.171c-0.807,0-1.508-0.315-2.034-1.016l-6.804-9.107l-0.631,0.701v7.145
	c0,1.226-1.122,2.277-2.455,2.277c-1.368,0-2.455-1.051-2.455-2.277V17.088c0-1.191,1.087-2.242,2.455-2.242
	c1.333,0,2.455,1.051,2.455,2.242v6.655l6.944-7.881c0.421-0.526,1.227-1.016,1.999-1.016c1.052,0,2.42,1.016,2.42,2.242
	c0,0.526-0.035,0.876-0.596,1.506l-6.98,7.881l7.681,10.158c0.351,0.455,0.386,0.84,0.386,1.191
	C17.02,38.84,16.143,40.171,14.635,40.171z M94.252,40.171c-1.368,0-2.455-1.051-2.455-2.242V17.088
	c0-1.191,1.087-2.242,2.455-2.242c1.333,0,2.455,1.051,2.455,2.242v20.841C96.707,39.12,95.585,40.171,94.252,40.171z
	 M91.915,45.205h25.508c0.704,0,1.275,0.57,1.275,1.274s-0.571,1.274-1.275,1.274H91.915c-0.705,0-1.275-0.57-1.275-1.274
	C90.64,45.776,91.211,45.205,91.915,45.205z M125.627,12.729c-0.302,0.676-1.096,0.98-1.773,0.678L105.179,3.085L86.503,13.407
	c-0.677,0.302-1.471-0.002-1.773-0.678c-0.302-0.676,0.002-1.469,0.679-1.77l18.915-10.454c0.234-0.187,0.526-0.291,0.827-0.294
	l0.028-0.001l0.028,0.001c0.301,0.003,0.592,0.107,0.827,0.294l18.915,10.454C125.626,11.261,125.93,12.053,125.627,12.729
	L125.627,12.729z M109.631,40.122c-1.518,0-2.844-0.239-3.977-0.717c-1.133-0.479-2.079-1.131-2.838-1.96
	c-0.759-0.828-1.332-1.802-1.717-2.922c-0.385-1.12-0.578-2.321-0.578-3.604V23.99c0-1.236,0.169-2.409,0.508-3.517
	c0.339-1.108,0.87-2.082,1.594-2.922c0.724-0.84,1.664-1.505,2.821-1.995c1.156-0.49,2.552-0.735,4.187-0.735
	c1.635,0,3.031,0.245,4.187,0.735c1.156,0.49,2.097,1.155,2.821,1.995c0.724,0.84,1.256,1.814,1.594,2.922
	c0.339,1.108,0.508,2.28,0.508,3.517v6.929c0,1.283-0.193,2.484-0.578,3.604c-0.385,1.12-0.958,2.094-1.717,2.922
	c-0.759,0.828-1.705,1.481-2.838,1.96C112.475,39.883,111.149,40.122,109.631,40.122z M109.631,19.266
	c-1.542,0-2.628,0.432-3.259,1.295s-0.946,2.006-0.946,3.429v6.929c0,1.4,0.339,2.543,1.016,3.429c0.677,0.886,1.74,1.33,3.189,1.33
	c1.448,0,2.511-0.443,3.189-1.33c0.677-0.886,1.016-2.03,1.016-3.429V23.99c0-1.423-0.315-2.566-0.946-3.429
	C112.259,19.698,111.173,19.266,109.631,19.266z"/>
<path fill="#058BB9" d="M102.12,58.782c1.076,0.096,2.189-0.19,3.116-0.888c1.983-1.494,2.368-4.311,0.859-6.291
	c-0.26-0.341-0.559-0.635-0.886-0.881l1.435-3.743c0.244-0.637-0.077-1.352-0.718-1.597c-0.641-0.246-1.357,0.072-1.601,0.708
	l-1.435,3.744c-1.076-0.096-2.189,0.19-3.116,0.888c-1.983,1.494-2.368,4.311-0.86,6.291c0.26,0.341,0.559,0.635,0.886,0.881
	l-0.483,1.261c-0.244,0.637,0.077,1.352,0.718,1.597c0.641,0.246,1.357-0.072,1.601-0.709L102.12,58.782L102.12,58.782z
	 M104.111,56.417c-1.166,0.879-2.831,0.647-3.719-0.518c-0.887-1.165-0.661-2.822,0.506-3.701c1.167-0.879,2.832-0.647,3.719,0.518
	C105.504,53.881,105.278,55.538,104.111,56.417z"/>
</svg>
