<svg xmlns="http://www.w3.org/2000/svg" xmlns:xlink="http://www.w3.org/1999/xlink" preserveAspectRatio="xMidYMid" width="35.06" height="34" viewBox="0 0 35.06 34">
  <defs>
    <style>
      .cls-1 {
        fill: #f7941e;
        fill-rule: evenodd;
      }
    </style>
  </defs>
  <path d="M34.665,22.957 C34.385,24.025 33.893,24.996 33.111,25.801 C31.664,27.290 29.897,27.555 27.946,27.029 C26.863,26.737 25.868,26.249 24.975,25.594 C24.373,25.152 23.714,24.843 23.025,24.577 C21.712,24.070 20.373,23.644 18.974,23.425 C18.255,23.312 17.535,23.286 16.693,23.374 C16.859,23.550 16.941,23.658 17.043,23.743 C17.862,24.426 18.141,25.304 18.052,26.327 C18.042,26.444 18.083,26.607 18.164,26.682 C19.466,27.874 19.682,29.329 19.177,30.909 C18.963,31.580 18.599,32.212 18.248,32.832 C17.888,33.470 17.304,33.777 16.541,33.805 C15.491,33.844 14.443,33.982 13.394,33.987 C11.893,33.993 10.708,32.998 10.469,31.542 C10.375,30.972 10.444,30.376 10.441,29.792 C10.437,29.136 10.450,28.480 10.430,27.824 C10.418,27.431 10.353,27.039 10.319,26.645 C10.249,25.820 9.856,25.546 9.041,25.761 C8.260,25.967 7.478,26.168 6.703,26.391 C6.412,26.475 6.155,26.477 5.924,26.280 C5.406,25.838 4.815,25.745 4.136,25.773 C2.868,25.824 1.878,25.250 1.184,24.229 C0.349,23.000 -0.111,21.651 0.037,20.158 C0.151,19.013 0.711,18.100 1.702,17.468 C1.935,17.320 2.021,17.143 2.049,16.891 C2.082,16.590 2.117,16.281 2.213,15.995 C2.260,15.854 2.424,15.701 2.570,15.648 C5.927,14.434 9.183,13.001 12.334,11.343 C13.956,10.489 15.533,9.562 16.951,8.400 C17.736,7.756 18.321,7.007 18.638,6.016 C19.270,4.039 20.343,2.309 21.974,0.945 C22.035,0.894 22.100,0.846 22.160,0.792 C23.291,-0.222 24.578,-0.151 25.896,0.314 C27.420,0.852 28.549,1.902 29.523,3.121 C31.160,5.170 32.237,7.506 33.122,9.935 C33.899,12.066 34.466,14.254 34.780,16.495 C35.083,18.649 35.227,20.814 34.665,22.957 ZM17.673,28.947 C17.731,28.269 16.926,27.383 16.235,27.296 C16.180,27.289 16.101,27.321 16.059,27.361 C15.561,27.848 15.495,28.362 15.957,28.891 C16.348,29.340 16.829,29.715 17.364,30.209 C17.478,29.761 17.638,29.359 17.673,28.947 ZM15.843,24.745 C15.273,24.193 14.640,23.666 14.681,22.723 C14.202,23.053 13.973,23.636 14.047,24.161 C14.199,25.223 14.868,25.957 15.671,26.653 C15.789,26.507 15.903,26.382 15.998,26.244 C16.480,25.542 16.443,25.327 15.843,24.745 ZM1.572,20.450 C1.530,21.485 1.870,22.407 2.412,23.269 C2.946,24.116 3.813,24.453 4.803,24.216 C4.983,24.173 5.158,24.106 5.389,24.033 C3.888,22.397 3.432,20.486 3.426,18.409 C2.413,18.545 1.613,19.461 1.572,20.450 ZM33.234,16.701 C32.916,14.494 32.358,12.340 31.579,10.243 C30.718,7.927 29.680,5.698 28.053,3.782 C27.291,2.885 26.416,2.126 25.266,1.713 C24.379,1.394 23.636,1.513 22.915,2.160 C21.562,3.374 20.630,4.844 20.109,6.534 C19.703,7.851 18.886,8.823 17.850,9.670 C16.026,11.160 13.962,12.281 11.860,13.337 C9.275,14.635 6.977,15.818 4.270,16.849 C4.081,16.921 3.974,16.999 3.948,17.223 C3.817,18.317 3.823,19.407 4.033,20.489 C4.365,22.189 5.123,23.649 6.585,24.702 C6.787,24.847 6.974,24.891 7.227,24.816 C7.867,24.625 8.150,24.406 8.798,24.239 C10.250,23.864 11.550,24.598 11.777,26.040 C11.951,27.150 11.957,28.287 12.004,29.414 C12.024,29.896 11.931,30.382 11.939,30.866 C11.955,31.898 12.607,32.518 13.661,32.478 C14.630,32.441 15.597,32.352 16.564,32.272 C16.676,32.263 16.814,32.191 16.883,32.104 C17.444,31.391 17.451,30.587 16.538,29.862 C16.278,29.656 16.034,29.426 15.811,29.183 C15.495,28.837 15.312,28.419 15.474,27.963 C15.703,27.320 15.477,26.834 15.005,26.420 C14.518,25.993 14.173,25.482 13.966,24.881 C13.602,23.823 13.813,22.833 14.806,22.290 C15.951,21.666 17.475,21.695 18.711,21.838 C20.512,22.047 22.222,22.598 23.894,23.271 C24.580,23.548 25.218,23.892 25.838,24.299 C26.523,24.750 27.273,25.124 28.035,25.438 C28.796,25.753 29.613,25.871 30.444,25.654 C31.522,25.373 32.200,24.647 32.693,23.723 C33.361,22.473 33.476,21.116 33.526,19.733 C33.431,18.722 33.379,17.705 33.234,16.701 ZM29.760,15.744 C28.292,16.771 26.801,17.767 25.318,18.774 C25.179,18.868 25.013,18.935 25.123,19.169 C25.772,20.554 26.509,21.881 27.629,22.967 C27.765,23.099 27.914,23.219 28.045,23.354 C27.207,22.803 26.244,22.320 25.711,21.497 C24.411,19.490 23.634,17.270 22.973,15.005 C22.503,13.396 22.175,11.757 22.024,10.092 C21.857,8.253 21.834,6.413 22.420,4.622 C22.612,4.035 23.208,3.209 23.690,2.789 C23.876,2.627 24.096,2.502 24.301,2.360 C23.409,2.920 23.027,3.789 22.800,4.729 C22.487,6.024 22.422,7.341 22.559,8.667 C22.657,9.609 22.751,10.552 22.847,11.494 C22.896,11.978 22.941,11.992 23.426,11.936 C24.251,11.841 25.080,11.777 25.907,11.697 C26.791,11.612 27.675,11.523 28.558,11.435 C28.782,11.413 28.947,11.441 29.124,11.640 C30.008,12.634 30.295,13.802 30.193,15.071 C30.174,15.309 29.968,15.598 29.760,15.744 ZM20.218,15.838 C19.609,13.656 19.638,11.326 19.833,9.267 C20.013,13.572 21.258,17.789 23.502,21.723 C22.622,20.909 20.844,18.083 20.218,15.838 Z" class="cls-1"/>
</svg>
