<svg xmlns="http://www.w3.org/2000/svg" xmlns:xlink="http://www.w3.org/1999/xlink" preserveAspectRatio="xMidYMid" width="29" height="34.97" viewBox="0 0 29 34.97">
  <defs>
    <style>
      .cls-1 {
        fill: #000;
        fill-rule: evenodd;
      }
    </style>
  </defs>
  <path d="M29.000,12.598 C29.000,18.268 23.070,22.875 15.669,23.055 L19.102,23.055 C19.102,23.055 20.602,23.174 20.517,25.848 L20.517,32.133 C20.517,32.133 21.063,33.251 21.930,33.529 C21.930,33.529 22.736,34.189 21.223,34.228 C21.223,34.228 19.730,34.267 19.102,33.529 C18.474,32.791 18.419,32.162 18.395,31.434 C18.371,30.708 18.395,27.244 18.395,27.244 C18.395,27.244 17.880,25.815 17.687,27.244 L17.687,31.434 L17.687,32.832 C17.687,32.832 17.917,34.358 19.102,34.926 C19.102,34.926 16.457,35.547 15.566,32.133 L15.566,27.244 C15.316,26.439 14.859,27.244 14.859,27.244 L14.859,32.133 C13.970,35.547 11.324,34.926 11.324,34.926 C12.510,34.358 12.738,32.832 12.738,32.832 L12.738,31.434 L12.738,27.244 C12.548,25.815 12.032,27.244 12.032,27.244 C12.032,27.244 12.056,30.708 12.032,31.434 C12.007,32.162 11.952,32.791 11.324,33.529 C10.697,34.267 9.204,34.228 9.204,34.228 C7.690,34.189 8.497,33.529 8.497,33.529 C9.363,33.251 9.910,32.133 9.910,32.133 L9.910,29.339 C9.727,27.958 6.827,28.340 5.669,27.943 C4.510,27.546 2.615,24.934 2.133,23.055 C1.652,21.176 0.012,22.356 0.012,22.356 C1.195,20.113 2.840,21.659 2.840,21.659 C6.357,27.150 9.910,25.149 9.910,25.149 C9.910,25.149 9.915,25.305 9.923,25.542 C9.965,23.190 11.324,23.055 11.324,23.055 L14.779,23.055 C7.379,22.875 1.448,18.268 1.448,12.598 C1.448,10.339 2.398,8.252 3.998,6.541 C3.044,4.703 3.288,1.004 4.255,0.120 C5.104,-0.655 8.278,2.036 9.461,3.093 C11.216,2.477 13.164,2.123 15.224,2.123 C17.080,2.123 18.847,2.406 20.463,2.912 C21.770,1.761 24.660,-0.615 25.465,0.120 C26.347,0.927 26.628,4.084 25.947,6.030 C27.854,7.827 29.000,10.109 29.000,12.598 Z" class="cls-1"/>
</svg>
