<?xml version="1.0" encoding="utf-8"?>
<!-- Generator: Adobe Illustrator 16.0.4, SVG Export Plug-In . SVG Version: 6.00 Build 0)  -->
<!DOCTYPE svg PUBLIC "-//W3C//DTD SVG 1.1//EN" "http://www.w3.org/Graphics/SVG/1.1/DTD/svg11.dtd">
<svg version="1.1" id="Layer_1" xmlns="http://www.w3.org/2000/svg" xmlns:xlink="http://www.w3.org/1999/xlink" x="0px" y="0px"
	 width="411.176px" height="40.317px" viewBox="0 0 411.176 40.317" enable-background="new 0 0 411.176 40.317"
	 xml:space="preserve">
<g>
	<defs>
		<rect id="SVGID_1_" y="0" width="411.176" height="40.317"/>
	</defs>
	<clipPath id="SVGID_2_">
		<use xlink:href="#SVGID_1_"  overflow="visible"/>
	</clipPath>
	<path clip-path="url(#SVGID_2_)" d="M145.406,20.1c0-11.597,8.295-19.623,19.016-20.079C164.744,0.007,167.872,0,168.196,0
		c6.343,0,10.902,2.828,13.994,6.698c0.406,0.509,0.266,1.259-0.302,1.576l-2.229,1.241c-0.435,0.243-0.995,0.154-1.304-0.238
		c-2.288-2.906-6.048-4.681-10.159-4.681c-0.324,0-3.45,0.009-3.768,0.028c-8.027,0.473-14.01,6.565-14.01,15.476
		c0,8.89,6.031,15.05,14.108,15.481c0.286,0.015,3.379,0.021,3.67,0.021c4.111,0,7.871-1.724,10.159-4.67
		c0.309-0.397,0.875-0.489,1.317-0.248l2.246,1.233c0.577,0.317,0.716,1.081,0.298,1.589c-3.215,3.912-7.674,6.693-14.02,6.693
		c-0.325,0-3.453-0.007-3.774-0.021C153.702,39.723,145.406,31.696,145.406,20.1"/>
	<path clip-path="url(#SVGID_2_)" d="M224.534,39.136V22.437h-26.5v16.699c0,0.388-0.314,0.703-0.703,0.703h-3.505
		c-0.388,0-0.702-0.315-0.702-0.703V1.068c0-0.388,0.314-0.703,0.702-0.703h3.505c0.389,0,0.703,0.315,0.703,0.703v16.689h26.5
		V1.068c0-0.388,0.315-0.703,0.703-0.703h3.507c0.389,0,0.703,0.315,0.703,0.703v38.067c0,0.388-0.314,0.703-0.703,0.703h-3.507
		C224.85,39.839,224.534,39.523,224.534,39.136"/>
	<path clip-path="url(#SVGID_2_)" d="M260.283,6.673l-14.87,32.057c-0.313,0.677-0.992,1.108-1.737,1.108h-3.556
		c-0.521,0-0.867-0.543-0.644-1.016l17.622-37.358c0.315-0.67,0.99-1.098,1.731-1.098h4.732c0.739,0,1.414,0.427,1.729,1.095
		l17.691,37.359c0.223,0.474-0.121,1.018-0.645,1.018h-3.592c-0.746,0-1.424-0.434-1.738-1.11L262.176,6.674
		C261.803,5.867,260.657,5.867,260.283,6.673"/>
	<path clip-path="url(#SVGID_2_)" d="M350.515,38.935V5.018c0,0-0.006-0.013-0.014-0.013h-14.418c-0.499,0-0.903-0.405-0.903-0.904
		V1.27c0-0.499,0.404-0.904,0.903-0.904h33.837c0.499,0,0.904,0.405,0.904,0.904v2.831c0,0.499-0.405,0.904-0.904,0.904h-14.479
		l-0.014,0.013v33.917c0,0.499-0.404,0.903-0.903,0.903h-3.106C350.919,39.838,350.515,39.434,350.515,38.935"/>
	<path clip-path="url(#SVGID_2_)" d="M379.201,33.242l1.536-1.977c0.403-0.519,1.161-0.575,1.635-0.119
		c2.639,2.546,6.583,4.411,11.573,4.411c0.304,0,3.446-0.007,3.731-0.021c6.351-0.303,8.41-3.568,8.41-6.458
		c0-10.179-26.226-4.271-26.226-18.355c0-6.51,5.799-10.664,13.553-10.664c0.271,0,3.389,0.004,3.654,0.013
		c5.209,0.158,9.362,1.859,12.46,4.739c0.436,0.405,0.497,1.072,0.12,1.532l-1.544,1.884c-0.398,0.486-1.129,0.551-1.588,0.123
		c-2.622-2.441-5.997-3.347-9.55-3.55c-0.352-0.02-3.554-0.03-3.908-0.03c-4.734,0-8.106,1.929-8.106,5.656
		c0,8.878,26.224,3.503,26.224,18.238c0,5.585-3.695,11.279-13.698,11.587c-0.281,0.009-3.417,0.013-3.709,0.013
		c-6.426,0-11.244-2.281-14.502-5.581C378.883,34.295,378.865,33.674,379.201,33.242"/>
	<path clip-path="url(#SVGID_2_)" d="M316.669,24.312c5.385-0.474,10.239-4.592,10.239-12.051c0-7.279-5.148-11.895-12.37-11.895
		h-20.867c-0.382,0-0.69,0.309-0.69,0.691v38.091c0,0.381,0.309,0.691,0.691,0.691h3.528c0.382,0,0.691-0.311,0.691-0.691V5.695
		c0-0.381,0.309-0.69,0.689-0.69h15.366c4.675,0,7.871,2.818,7.871,7.256c0,4.946-3.196,8.145-7.871,8.145h-3.652
		c-0.573,0-0.929,0.625-0.634,1.117l3.075,5.136c0.021,0.034,0.02,0.07,0.032,0.104l8.55,12.758
		c0.127,0.198,0.346,0.318,0.581,0.318h4.138c0.551,0,0.879-0.613,0.576-1.072L316.669,24.312z"/>
	<path clip-path="url(#SVGID_2_)" fill="#EA0777" d="M76.461,14.251l6.414,11.11c1.296-0.725,2.678-1.282,4.146-1.62l-6.977-12.083
		C78.851,12.524,77.673,13.412,76.461,14.251"/>
	<path clip-path="url(#SVGID_2_)" fill="#EA0777" d="M49.964,28.641c0.026-0.304,0.103-0.605,0.261-0.879l7.825-13.554
		c-0.829-0.293-1.667-0.557-2.527-0.765c-0.646-0.156-1.286-0.262-1.921-0.331l-7.67,13.286c-0.722,1.25-0.834,2.74-0.353,4.071
		c1.1-0.626,2.241-1.18,3.474-1.574C49.355,28.799,49.659,28.718,49.964,28.641"/>
	<path clip-path="url(#SVGID_2_)" fill="#05ACED" d="M58.05,14.208l4.791-8.298c0.379-0.657,1.08-1.062,1.839-1.062h2.094
		c-1.205-0.366-2.355-0.89-3.502-1.418c-1.03-0.475-2.048-0.972-3.064-1.474c-0.262,0.276-0.5,0.58-0.695,0.918l-5.911,10.238
		c0.635,0.069,1.275,0.175,1.921,0.331C56.383,13.65,57.221,13.916,58.05,14.208"/>
	<path clip-path="url(#SVGID_2_)" fill="#05ACED" d="M71.645,5.909l4.816,8.342c1.213-0.84,2.39-1.727,3.584-2.593l-4.239-7.342
		c-1.564,0.498-3.126,0.847-4.748,0.962C71.289,5.448,71.497,5.652,71.645,5.909"/>
	<path clip-path="url(#SVGID_2_)" fill="#5E2E90" d="M84.261,27.762c0.379,0.657,0.379,1.467,0,2.125l-2.562,4.437
		c-0.379,0.657-1.081,1.062-1.84,1.062H54.626c-0.759,0-1.46-0.405-1.84-1.062l-2.562-4.438c-0.221-0.384-0.297-0.818-0.26-1.245
		c-0.305,0.077-0.608,0.158-0.911,0.254c-1.233,0.395-2.375,0.948-3.475,1.574c0.097,0.267,0.208,0.53,0.353,0.781l3.527,6.109
		c0.867,1.501,2.469,2.427,4.202,2.427h27.165c1.733,0,3.334-0.925,4.201-2.426l3.875-6.711c0.481-0.833,0.631-2.586-0.016-3.68
		L87.02,23.74c-1.467,0.339-2.849,0.896-4.145,1.621L84.261,27.762z"/>
	<path clip-path="url(#SVGID_2_)" fill="#5E2E90" d="M66.773,4.847h3.031c0.463,0,0.893,0.165,1.253,0.431
		c1.622-0.115,3.184-0.464,4.748-0.962l-0.833-1.443c-0.867-1.502-2.469-2.426-4.202-2.426l-7.057,0.001
		c-1.342,0-2.601,0.559-3.505,1.507c1.016,0.502,2.034,0.999,3.064,1.474C64.419,3.958,65.568,4.481,66.773,4.847"/>
	<path clip-path="url(#SVGID_2_)" fill="#5E2E90" d="M10.491,38.847c-0.072-0.102-0.149-0.202-0.222-0.303
		C10.334,38.651,10.41,38.751,10.491,38.847"/>
	<path clip-path="url(#SVGID_2_)" fill="#81B845" d="M4.4,15.575v0.382c0,0.275,0.224,0.498,0.499,0.498h0.788
		c-0.007-0.005-0.014-0.009-0.02-0.014C5.252,16.143,4.821,15.866,4.4,15.575"/>
	<path clip-path="url(#SVGID_2_)" fill="#EA0777" d="M37.643,20.833c1.433,0,2.594-1.162,2.594-2.594v-0.246
		c-0.623,0.363-1.252,0.717-1.891,1.052c-4.203,2.204-7.028,2.077-10.748-1.102c-0.565-0.483-1.098-0.996-1.628-1.51h-0.016v14.459
		c0.03,0.033,0.057,0.069,0.087,0.103c1.171,1.309,2.506,2.457,3.957,3.463c0.116,0.08,0.236,0.15,0.356,0.221V20.833H37.643z"/>
	<path clip-path="url(#SVGID_2_)" fill="#EA0777" d="M4.4,11.068v-5.79c0-0.275,0.224-0.499,0.499-0.499h10.127
		c-0.224-0.187-0.439-0.383-0.67-0.563C12.322,2.63,9.971,1.778,7.473,1.229C5.861,0.873,4.235,0.589,2.598,0.379H2.595
		C1.162,0.379,0,1.542,0,2.975V9.42c1.379,0.441,2.722,0.984,4.063,1.508C4.176,10.972,4.287,11.023,4.4,11.068"/>
	<path clip-path="url(#SVGID_2_)" fill="#EA0777" d="M14.278,16.739v-0.284h-0.334C14.053,16.552,14.172,16.639,14.278,16.739"/>
	<path clip-path="url(#SVGID_2_)" fill="#05ACED" d="M14.356,4.216c0.231,0.18,0.446,0.376,0.67,0.563h12.27
		c-1.687-0.959-3.228-2.082-4.777-3.223c-0.538-0.397-1.244-0.65-1.69-1.177H2.598C4.235,0.59,5.861,0.872,7.473,1.229
		C9.971,1.778,12.322,2.63,14.356,4.216"/>
	<path clip-path="url(#SVGID_2_)" fill="#05ACED" d="M35.837,5.874v10.061c0,0.275-0.223,0.499-0.499,0.499h-9.369
		c0.531,0.514,1.063,1.027,1.629,1.51c3.72,3.178,6.544,3.305,10.748,1.101c0.639-0.335,1.267-0.689,1.891-1.052V3.677
		c-0.611,0.371-1.229,0.73-1.868,1.047C37.523,5.143,36.688,5.55,35.837,5.874"/>
	<path clip-path="url(#SVGID_2_)" fill="#5E2E90" d="M4.4,11.068c-0.113-0.045-0.224-0.096-0.337-0.14
		C2.722,10.404,1.379,9.861,0,9.42v3.19c1.479,0.972,2.946,1.959,4.4,2.964V11.068z"/>
	<path clip-path="url(#SVGID_2_)" fill="#5E2E90" d="M26.041,30.995c-0.03-0.034-0.057-0.069-0.087-0.104v3.995
		c0,0.275-0.223,0.499-0.498,0.499h-3.869c0.9,1.499,1.827,2.982,2.859,4.4h3.313c1.433,0,2.595-1.162,2.595-2.595v-2.513
		c-0.12-0.07-0.24-0.141-0.355-0.221C28.547,33.452,27.212,32.304,26.041,30.995"/>
	<path clip-path="url(#SVGID_2_)" fill="#5E2E90" d="M13.944,16.455H5.687c2.265,1.623,4.487,3.328,6.368,5.373
		c0.781,0.848,1.512,1.731,2.224,2.627v-7.716C14.172,16.639,14.053,16.552,13.944,16.455"/>
	<path clip-path="url(#SVGID_2_)" fill="#81B845" d="M16.55,35.386c0.372,0.664,0.733,1.335,1.08,2.016
		c0.407,0.798,0.823,1.591,1.237,2.385h5.579c-1.032-1.418-1.959-2.9-2.859-4.4H16.55z"/>
	<path clip-path="url(#SVGID_2_)" fill="#81B845" d="M14.278,24.455c-0.712-0.896-1.443-1.779-2.224-2.627
		c-1.88-2.045-4.103-3.75-6.368-5.373H4.899c-0.276,0-0.499-0.223-0.499-0.499v-0.381C2.946,14.57,1.479,13.582,0,12.61v4.247
		c0.471,0.392,0.931,0.797,1.408,1.171c1.141,0.895,2.235,1.846,3.302,2.827h5.168v5.157c1.611,1.794,3.075,3.685,4.4,5.666V24.455z
		"/>
	<path clip-path="url(#SVGID_2_)" fill="#0C964C" d="M16.55,35.386h-1.772c-0.276,0-0.499-0.223-0.499-0.499v-3.208
		c-1.326-1.981-2.79-3.872-4.4-5.666v6.534c0.876,0.971,1.735,1.958,2.547,2.986c1.065,1.348,1.887,2.824,2.791,4.253h3.65
		c-0.414-0.794-0.83-1.587-1.237-2.385C17.283,36.721,16.922,36.05,16.55,35.386"/>
	<path clip-path="url(#SVGID_2_)" fill="#0C964C" d="M0,16.857v1.403c0,1.433,1.162,2.595,2.595,2.595H4.71
		c-1.066-0.981-2.16-1.932-3.301-2.827C0.932,17.654,0.472,17.25,0,16.857"/>
	<path clip-path="url(#SVGID_2_)" fill="#5E2E90" d="M22.519,1.556c1.55,1.141,3.09,2.264,4.777,3.223h8.043
		c0.276,0,0.499,0.224,0.499,0.499v0.596c0.85-0.324,1.685-0.732,2.532-1.15c0.639-0.317,1.256-0.676,1.868-1.047V2.974
		c0-1.433-1.162-2.595-2.595-2.595H20.829C21.275,0.907,21.98,1.16,22.519,1.556"/>
	<path clip-path="url(#SVGID_2_)" fill="#81B845" d="M9.878,32.547v4.645c0,0.497,0.147,0.958,0.39,1.353
		c0.073,0.102,0.15,0.201,0.222,0.303c0.476,0.569,1.183,0.939,1.983,0.939h2.744c-0.904-1.429-1.727-2.906-2.791-4.253
		C11.613,34.505,10.754,33.518,9.878,32.547"/>
	<path clip-path="url(#SVGID_2_)" fill="#5E2E90" d="M10.491,38.848c-0.072-0.103-0.149-0.202-0.222-0.304
		C10.334,38.651,10.41,38.75,10.491,38.848"/>
	<path clip-path="url(#SVGID_2_)" fill="#EA0777" d="M106.677,36.771c1.54,0.815,3.224,0.809,4.888,0.492
		c1.344-0.255,2.573-0.742,3.741-1.349c-1.407-0.007-2.791-0.2-4.115-0.58c-1.675-0.482-3.199-1.252-4.53-2.285
		c-2.143-1.665-3.618-3.766-4.51-6.421c-0.505-1.504-0.751-3.155-0.752-5.05c0-1.474-0.001-3.194-0.001-4.998
		c-1.489-1.412-2.924-2.878-4.4-4.302c0,3.394,0,6.903,0.001,9.302c0.001,2.198,0.278,4.356,0.981,6.449
		c0.229,0.682,0.5,1.334,0.795,1.97C101.212,32.46,103.516,35.098,106.677,36.771"/>
	<path clip-path="url(#SVGID_2_)" fill="#EA0777" d="M136.754,5.165c-1.486,0.434-2.95,0.928-4.399,1.458
		c0,4.509,0,10.775-0.004,15.023c-0.002,1.899-0.309,3.624-0.914,5.231c1.283-0.508,2.566-1.012,3.9-1.379
		c0.339-0.094,0.704-0.098,1.067-0.105c0.23-1.22,0.345-2.468,0.347-3.743C136.754,17.363,136.754,9.573,136.754,5.165"/>
	<path clip-path="url(#SVGID_2_)" fill="#05ACED" d="M101.397,4.779h30.957c0,0.569,0,1.188,0,1.843
		c1.45-0.53,2.913-1.024,4.399-1.458c0-0.882,0-1.64,0-2.196c-0.003-1.43-1.163-2.589-2.594-2.589H99.599
		c-1.432,0-2.594,1.162-2.594,2.594L96.998,2.96v9.319c1.476,1.424,2.912,2.89,4.4,4.302C101.397,12.46,101.397,7.893,101.397,4.779
		"/>
	<path clip-path="url(#SVGID_2_)" fill="#5E2E90" d="M131.437,26.877c-0.228,0.604-0.489,1.195-0.804,1.768
		c-0.949,1.723-2.175,3.148-3.747,4.354c-1.328,1.019-2.815,1.79-4.418,2.294c-1.068,0.334-2.193,0.535-3.341,0.6
		c-0.304,0.017-3.441,0.026-3.743,0.026c-0.027,0-0.052-0.004-0.078-0.004c-1.168,0.607-2.397,1.094-3.741,1.349
		c-1.664,0.316-3.348,0.323-4.888-0.492c-3.161-1.674-5.465-4.312-7.903-6.771c1.186,2.558,2.897,4.744,5.187,6.524
		c1.807,1.404,3.823,2.408,6.015,3.038c1.77,0.509,3.575,0.755,5.408,0.755c0.383,0,3.601-0.011,3.987-0.032
		c1.505-0.083,2.98-0.346,4.413-0.795c2.099-0.657,4.03-1.657,5.78-3.001c2.041-1.565,3.686-3.475,4.923-5.723
		c0.943-1.713,1.566-3.51,1.917-5.374c-0.363,0.008-0.728,0.012-1.067,0.104C134.003,25.865,132.72,26.369,131.437,26.877"/>
</g>
</svg>
